<svg xmlns="http://www.w3.org/2000/svg" viewBox="0 0 1267.38 367.89"><defs><style>.cls-1{fill:#212121;}.cls-2{fill:#7f7f7f;opacity:0.53;}.cls-3{fill:#ffcb4f;}.cls-10,.cls-3,.cls-4,.cls-5,.cls-6,.cls-7,.cls-8,.cls-9{fill-rule:evenodd;}.cls-5,.cls-7{fill:#eaeaea;}.cls-11,.cls-6{fill:#fff;}.cls-7{stroke:#eaae3e;stroke-width:5px;}.cls-10,.cls-7{stroke-miterlimit:10;}.cls-8{fill:#eaae3e;}.cls-9{fill:#ffe064;}.cls-10{fill:none;stroke:#000;stroke-width:7px;}.cls-12{fill:#2d2d2d;}</style></defs><title>amouvLogoBlack</title><g id="Calque_5" data-name="Calque 5"><path class="cls-1" d="M176.26,324.13h-43.7l-9.31-64.34H75.91L66.6,324.13H23.71l49-283.26H127.3ZM99,101.57,81.57,220.94h36l-17.4-119.38Z" transform="translate(-23.71 -4.93)"/><path class="cls-1" d="M388.7,324.13H345.81V127.47H345l-35.61,156.2H283.9l-35.61-156.2h-.81V324.13H207V40.87h56.25L296.84,193h.81L330.84,40.87H388.7Z" transform="translate(-23.71 -4.93)"/><path class="cls-1" d="M550.36,56q18.41,19.22,18.41,52.4V256.55q0,33.18-18.41,52.4t-50.78,19.22q-32.38,0-50.78-19.22t-18.41-52.4V108.45q0-33.17,18.41-52.4t50.78-19.22Q531.94,36.82,550.36,56ZM479.94,84.78q-6.68,8.3-6.68,24.07v147.3q0,15.78,6.68,24.07t19.63,8.3q12.95,0,19.63-8.3t6.68-24.07V108.85q0-15.78-6.68-24.07t-19.63-8.3Q486.61,76.48,479.94,84.78Z" transform="translate(-23.71 -4.93)"/><path class="cls-1" d="M740.74,260.6q0,32.78-17.6,50.18T674,328.18q-30.76,0-48.35-17.4T608,260.6V40.87h41.28V259.38q0,28.33,24.28,28.33t24.28-28.33V40.87h42.89Z" transform="translate(-23.71 -4.93)"/><path class="cls-1" d="M872.25,324.13H816.81L769.06,40.87h43.7l32,216.08h.81L877.11,40.87H920Z" transform="translate(-23.71 -4.93)"/><circle class="cls-2" cx="888.29" cy="187.07" r="7"/><circle class="cls-2" cx="861.29" cy="159.07" r="33"/><circle class="cls-2" cx="850.29" cy="92.07" r="16"/><circle class="cls-2" cx="783.29" cy="123.07" r="20"/><circle class="cls-2" cx="775.29" cy="177.07" r="25"/><circle class="cls-2" cx="798.29" cy="66.07" r="21"/><circle class="cls-2" cx="732.29" cy="106.07" r="14"/></g><g id="Calque_1" data-name="Calque 1"><polygon class="cls-3" points="1119.26 367.89 1267.38 281.77 1267.38 195.66 1118.92 282.66 1119.26 367.89"/><path class="cls-4" d="M948.45,300.39s12.64,9,33.31-5.42c17.71-12.4,4.55-65-5.3-63.18s-12,6.26-12,6.26Z" transform="translate(-23.71 -4.93)"/><polygon class="cls-5" points="898.99 153.98 967.01 193.42 967.35 111.33 932.22 90.59 898.99 153.98"/><path class="cls-4" d="M1071.77,370s12.64,9,33.31-5.42c17.71-12.4,4.55-65-5.3-63.18s-12,6.26-12,6.26Z" transform="translate(-23.71 -4.93)"/><polygon class="cls-6" points="1048.65 151.91 1064.49 244.23 1207.1 161.55 1190.57 70.61 1048.65 151.91"/><polygon class="cls-7" points="967.35 195.66 967.35 111.61 1041.76 153.98 1056.91 248.36 967.35 195.66"/><path class="cls-8" d="M942.75,258.11l45.78,26.43,0-.16L942.75,258C942.75,258.06,942.75,258.11,942.75,258.11Z" transform="translate(-23.71 -4.93)"/><polygon class="cls-8" points="896.05 152.25 895.7 239.59 985.61 291.42 965.25 279.86 1119.26 367.89 1119.26 282.46 896.05 152.25"/><polygon class="cls-9" points="1119.26 282.46 1060.23 248.49 1210.2 162.59 1267.38 195.66 1119.26 282.46"/><path class="cls-10" d="M1084.07,253.29" transform="translate(-23.71 -4.93)"/><path class="cls-10" d="M1105.64,0" transform="translate(-23.71 -4.93)"/><ellipse class="cls-11" cx="1161.9" cy="306.65" rx="11.51" ry="15.08"/><ellipse class="cls-11" cx="1241.28" cy="261.72" rx="11.51" ry="15.08"/><path class="cls-8" d="M1068.22,158.32,953.46,92.06l-33.7,65.12,164.65,96.45ZM957.12,98.15l106.12,61.27,15,88.14L926,159Z" transform="translate(-23.71 -4.93)"/><path class="cls-3" d="M1216.68,71.76l-148.81,86.81,16.53,95.07,149.5-86.12Zm-141.32,87.18L1210.64,80l15.69,86.12-135.94,79.23Z" transform="translate(-23.71 -4.93)"/><polygon class="cls-9" points="929.81 87.49 1044.17 153.63 1192.98 66.83 1077.93 0 929.81 87.49"/><ellipse class="cls-12" cx="1077.41" cy="335.86" rx="27.47" ry="36.77" transform="translate(-42.12 61.15) rotate(-3.48)"/><ellipse class="cls-11" cx="1076.83" cy="337" rx="17.61" ry="23.71" transform="translate(-42.19 61.12) rotate(-3.48)"/><ellipse class="cls-12" cx="954.09" cy="266.28" rx="27.47" ry="36.77" transform="translate(-38.12 53.53) rotate(-3.48)"/><ellipse class="cls-11" cx="953.51" cy="267.42" rx="17.61" ry="23.71" transform="translate(-38.19 53.49) rotate(-3.48)"/></g></svg>