<?xml version="1.0" encoding="utf-8"?>
<!-- Generator: Adobe Illustrator 21.0.0, SVG Export Plug-In . SVG Version: 6.00 Build 0)  -->
<svg version="1.1" id="Calque_1" xmlns="http://www.w3.org/2000/svg" xmlns:xlink="http://www.w3.org/1999/xlink" x="0px" y="0px"
	 viewBox="0 0 1377 367.9" style="enable-background:new 0 0 1377 367.9;" xml:space="preserve">
<style type="text/css">
	.st0{fill:#FFFFFF;}
	.st1{opacity:0.53;fill:#7F7F7F;enable-background:new    ;}
	.st2{fill:#FFCB4F;}
	.st3{fill:#EAEAEA;}
	.st4{fill:#EAEAEA;stroke:#EAAE3E;stroke-width:5;stroke-miterlimit:10;}
	.st5{fill:#EAAE3E;}
	.st6{fill:#FFE064;}
	.st7{fill:none;stroke:#000000;stroke-width:7;stroke-miterlimit:10;}
	.st8{fill:#2D2D2D;}
</style>
<title>amouvLogoWhite</title>
<g id="Calque_5">
	<path class="st0" d="M152.5,319.2h-43.7l-9.3-64.3H52.2l-9.3,64.3H0L49,35.9h54.6L152.5,319.2z M75.3,96.6L57.9,216h36L76.5,96.6
		L75.3,96.6z"/>
	<path class="st0" d="M365,319.2h-42.9V122.5h-0.8l-35.6,156.2h-25.5l-35.6-156.2h-0.8v196.7h-40.5V35.9h56.3l33.6,152.1h0.8
		l33.2-152.1H365V319.2z"/>
	<path class="st0" d="M526.6,51.1c12.3,12.8,18.4,30.3,18.4,52.4v148.1c0,22.1-6.1,39.6-18.4,52.4c-12.3,12.8-29.2,19.2-50.8,19.2
		c-21.6,0-38.5-6.4-50.8-19.2c-12.3-12.8-18.4-30.3-18.4-52.4V103.5c0-22.1,6.1-39.6,18.4-52.4s29.2-19.2,50.8-19.2
		C497.4,31.9,514.4,38.3,526.6,51.1z M456.2,79.8c-4.5,5.5-6.7,13.6-6.7,24.1v147.3c0,10.5,2.2,18.5,6.7,24.1
		c4.5,5.5,11,8.3,19.6,8.3c8.6,0,15.2-2.8,19.6-8.3c4.5-5.5,6.7-13.6,6.7-24.1V103.9c0-10.5-2.2-18.5-6.7-24.1
		c-4.5-5.5-11-8.3-19.6-8.3C467.2,71.6,460.7,74.3,456.2,79.8z"/>
	<path class="st0" d="M717,255.7c0,21.9-5.9,38.6-17.6,50.2c-11.7,11.6-28.1,17.4-49.1,17.4c-20.5,0-36.6-5.8-48.3-17.4
		c-11.7-11.6-17.6-28.3-17.7-50.2V35.9h41.3v218.5c0,18.9,8.1,28.3,24.3,28.3s24.3-9.4,24.3-28.3V35.9H717L717,255.7z"/>
	<path class="st0" d="M848.5,319.2h-55.4L745.3,35.9H789L821,252h0.8l31.5-216.1h42.9L848.5,319.2z"/>
	<circle class="st1" cx="888.3" cy="187.1" r="7"/>
	<circle class="st1" cx="861.3" cy="159.1" r="33"/>
	<circle class="st1" cx="850.3" cy="92.1" r="16"/>
	<circle class="st1" cx="783.3" cy="123.1" r="20"/>
	<circle class="st1" cx="775.3" cy="177.1" r="25"/>
	<circle class="st1" cx="798.3" cy="66.1" r="21"/>
	<circle class="st1" cx="732.3" cy="106.1" r="14"/>
</g>
<g id="Calque_1_1_">
	<polygon class="st2" points="1119.3,367.9 1267.4,281.8 1267.4,195.7 1118.9,282.7 	"/>
	<path d="M924.7,295.5c0,0,12.6,9,33.3-5.4c17.7-12.4,4.5-65-5.3-63.2s-12,6.3-12,6.3L924.7,295.5z"/>
	<polygon class="st3" points="899,154 967,193.4 967.3,111.3 932.2,90.6 	"/>
	<path d="M1048.1,365.1c0,0,12.6,9,33.3-5.4c17.7-12.4,4.6-65-5.3-63.2s-12,6.3-12,6.3L1048.1,365.1z"/>
	<polygon class="st0" points="1048.7,151.9 1064.5,244.2 1207.1,161.6 1190.6,70.6 	"/>
	<polygon class="st4" points="967.3,195.7 967.3,111.6 1041.8,154 1056.9,248.4 	"/>
	<path class="st5" d="M919,253.2l45.8,26.4v-0.2L919,253.1C919,253.1,919,253.2,919,253.2z"/>
	<polygon class="st5" points="896,152.3 895.7,239.6 985.6,291.4 965.3,279.9 1119.3,367.9 1119.3,282.5 	"/>
	<polygon class="st6" points="1119.3,282.5 1060.2,248.5 1210.2,162.6 1267.4,195.7 	"/>
	<path class="st7" d="M1060.4,248.4"/>
	<path class="st7" d="M1081.9-4.9"/>
	<ellipse class="st0" cx="1161.9" cy="306.6" rx="11.5" ry="15.1"/>
	<ellipse class="st0" cx="1241.3" cy="261.7" rx="11.5" ry="15.1"/>
	<path class="st5" d="M1044.5,153.4L929.8,87.1L896,152.3l164.7,96.4L1044.5,153.4z M933.4,93.2l106.1,61.3l15,88.1l-152.2-88.6
		L933.4,93.2z"/>
	<path class="st2" d="M1193,66.8l-148.8,86.8l16.5,95.1l149.5-86.1L1193,66.8z M1051.7,154l135.3-78.9l15.7,86.1l-135.9,79.2
		L1051.7,154z"/>
	<polygon class="st6" points="929.8,87.5 1044.2,153.6 1193,66.8 1077.9,0 	"/>
	
		<ellipse transform="matrix(0.9982 -6.070012e-02 6.070012e-02 0.9982 -18.1483 64.5695)" class="st8" cx="1053.7" cy="331" rx="27.5" ry="36.8"/>
	
		<ellipse transform="matrix(0.9982 -6.070012e-02 6.070012e-02 0.9982 -18.2187 64.5364)" class="st0" cx="1053.1" cy="332.1" rx="17.6" ry="23.7"/>
	
		<ellipse transform="matrix(0.9982 -6.070012e-02 6.070012e-02 0.9982 -14.1518 56.9558)" class="st8" cx="930.4" cy="261.4" rx="27.5" ry="36.8"/>
	
		<ellipse transform="matrix(0.9982 -6.070012e-02 6.070012e-02 0.9982 -14.2216 56.9227)" class="st0" cx="929.8" cy="262.5" rx="17.6" ry="23.7"/>
</g>
</svg>
